<svg width="64" height="64" viewBox="0 0 64 64" fill="none" xmlns="http://www.w3.org/2000/svg">
  <defs>
    <linearGradient id="rkjGradient" x1="10" y1="8" x2="56" y2="58" gradientUnits="userSpaceOnUse">
      <stop offset="0" stop-color="#A855FF"/>
      <stop offset="0.52" stop-color="#FF5EBC"/>
      <stop offset="1" stop-color="#FFAD8A"/>
    </linearGradient>

    <radialGradient id="rkjGlow" cx="0" cy="0" r="1" gradientUnits="userSpaceOnUse" gradientTransform="translate(32 32) rotate(90) scale(32)">
      <stop offset="0" stop-color="#FF5EBC" stop-opacity="0.34"/>
      <stop offset="1" stop-color="#060012" stop-opacity="0"/>
    </radialGradient>

    <filter id="softShadow" x="-20" y="-20" width="104" height="104" filterUnits="userSpaceOnUse" color-interpolation-filters="sRGB">
      <feDropShadow dx="0" dy="10" stdDeviation="10" flood-color="#FF5EBC" flood-opacity="0.22"/>
    </filter>
  </defs>

  <rect width="64" height="64" rx="18" fill="#060012"/>
  <rect x="1" y="1" width="62" height="62" rx="17" fill="url(#rkjGlow)"/>
  <rect x="1" y="1" width="62" height="62" rx="17" stroke="white" stroke-opacity="0.12"/>

  <g filter="url(#softShadow)">
    <rect x="18" y="27" width="7" height="20" rx="3.5" fill="url(#rkjGradient)"/>
    <rect x="28.5" y="17" width="7" height="30" rx="3.5" fill="url(#rkjGradient)"/>
    <rect x="39" y="23" width="7" height="24" rx="3.5" fill="url(#rkjGradient)"/>
  </g>

  <path d="M18 20C18 18.3431 19.3431 17 21 17H43C44.6569 17 46 18.3431 46 20V20.5C46 22.1569 44.6569 23.5 43 23.5H21C19.3431 23.5 18 22.1569 18 20.5V20Z" fill="white" fill-opacity="0.06"/>
</svg>